Coordinates
version=1
nRows=11
nColumns=36
inDegrees=yes

Units are S.I. units (second, meters, Newtons, ...)
If the header above contains a line with 'inDegrees', this indicates whether rotational values are in degrees (yes) or radians (no).

endheader
time	pelvis_tilt	pelvis_list	pelvis_rotation	pelvis_tx	pelvis_ty	pelvis_tz	hip_flexion_r	hip_adduction_r	hip_rotation_r	knee_angle_r	knee_angle_r_beta	ankle_angle_r	subtalar_angle_r	mtp_angle_r	hip_flexion_l	hip_adduction_l	hip_rotation_l	knee_angle_l	knee_angle_l_beta	ankle_angle_l	subtalar_angle_l	mtp_angle_l	lumbar_extension	lumbar_bending	lumbar_rotation	arm_flex_r	arm_add_r	arm_rot_r	elbow_flex_r	pro_sup_r	arm_flex_l	arm_add_l	arm_rot_l	elbow_flex_l	pro_sup_l
      1.43333330	    -10.26435548	     -7.91424516	     -6.25364747	      0.85113186	      0.99218869	     -0.10697750	     29.44916531	      4.90335987	      2.26189635	      0.49186356	      0.00858464	     -6.60352880	    -12.50224162	     -7.49921036	      8.92902619	     -1.38451381	      7.96858819	      8.42078349	      0.14697040	      4.92995901	     -2.17081687	     -7.49921036	     -0.21022977	     11.54710460	     -3.53262325	     39.63343969	      4.68359516	     69.15645293	    103.74410073	     96.56680680	     30.22612814	      0.42674829	     59.30596397	    120.77596422	    101.42641137
      1.45000000	     -9.98933335	     -7.80319959	     -6.52422673	      0.85072426	      0.99172480	     -0.10668324	     29.18902494	      4.65270495	      2.18606108	      0.43693244	      0.00762591	     -6.77130026	    -12.60466620	     -7.49937901	      8.45566117	     -1.23886082	      7.85866563	      8.51992449	      0.14870073	      5.13989323	     -2.20684470	     -7.49937901	     -0.16494681	     11.24464806	     -3.47846996	     39.59905152	      4.56883018	     69.23152750	    103.80823560	     96.34795557	     30.38322777	      0.55748315	     59.62137241	    120.66850824	    100.85820225
      1.46666670	     -9.71915664	     -7.69857722	     -6.83465004	      0.85525239	      0.99200099	     -0.10248471	     28.85533326	      4.48942424	      2.09365706	      0.40289164	      0.00703179	     -6.76485224	    -12.43360792	     -7.49938426	      8.05613817	     -1.21898051	      7.87411019	      8.60767511	      0.15023227	      5.90288123	     -2.40492270	     -7.49938426	      0.01738030	     10.92751747	     -3.46970983	     39.28698765	      4.79723225	     69.22808917	    103.66650663	     96.35139632	     30.24891647	      0.54965564	     59.45425898	    120.56207067	    100.84672141
      1.48333330	     -9.26223112	     -7.66108703	     -7.01407337	      0.85498650	      0.99644007	     -0.10223451	     28.41380398	      4.29001999	      1.87620526	      0.36539428	      0.00637733	     -6.56838649	    -11.92891692	     -7.49943790	      7.29159702	     -1.22707925	      7.74262938	      8.51288025	      0.14857779	      6.16677688	     -2.16379297	     -7.49943790	     -0.11888203	     10.65219524	     -3.35185314	     39.23702473	      4.66794774	     69.22129932	    103.43606047	     95.17096911	     29.75889599	      0.05688767	     59.29343358	    120.82407490	     99.31863767
      1.50000000	     -9.00950554	     -7.52181781	     -7.20056198	      0.85950147	      0.99602311	     -0.09825071	     27.87856222	      4.11622614	      1.86847640	      0.30482594	      0.00532022	     -6.50149216	    -11.66684828	     -7.49950537	      6.74424065	     -1.21217239	      7.70227237	      8.29913024	      0.14484715	      6.71622239	     -2.01245819	     -7.49950537	      0.20856238	     10.18864866	     -3.26458001	     39.35610470	      4.84967702	     69.22897955	    103.07917550	     95.30312999	     29.14111985	     -0.42997164	     59.24056772	    121.03676976	     99.36295320
      1.51666670	     -8.82636620	     -7.49721660	     -7.35407379	      0.85928795	      0.99585087	     -0.09848904	     27.78186277	      3.94184698	      1.73555534	      0.28319911	      0.00494276	     -6.42510847	    -11.30992051	     -7.49956490	      6.32554742	     -1.24700812	      7.70565276	      8.29704919	      0.14481083	      6.98752607	     -1.80610559	     -7.49956490	      0.45061676	      9.86431929	     -2.93205049	     39.41267557	      4.81643749	     68.83106003	    102.76529453	     93.41368896	     28.98401566	     -0.52011095	     59.40235456	    121.07313096	     97.07691970
      1.53333330	     -8.62327682	     -7.28006908	     -7.33868029	      0.85872089	      0.99325547	     -0.09863640	     27.69335704	      3.54140496	      1.73072757	      0.24893818	      0.00434479	     -5.85274386	    -10.69402909	     -7.49964607	      6.25721507	     -1.04019775	      7.95000706	      8.58547495	      0.14984481	      7.72131443	     -1.81256596	     -7.49964607	      0.62786165	      9.31549808	     -2.72713446	     39.69420658	      4.65150042	     68.59947885	    103.08799197	     90.90194751	     29.23525645	     -0.69022192	     59.24878928	    120.98070270	     94.09605952
      1.55000000	     -8.39806388	     -7.27152493	     -7.17988415	      0.85860710	      0.99697095	     -0.09841327	     27.33738020	      3.27284400	      1.65934914	      0.24701383	      0.00431120	     -5.70046890	    -10.42208906	     -7.49973675	      6.15669640	     -0.99635655	      8.13149312	      9.01867647	      0.15740560	      7.71615406	     -1.87618186	     -7.49973675	      0.58092615	      9.05682328	     -2.79274537	     40.04737918	      4.67500238	     68.66518140	    103.10431586	     94.01550801	     29.14130293	     -1.07866400	     58.16037840	    120.99285480	     97.12980919
      1.56666670	     -8.33540523	     -7.22709097	     -7.16518265	      0.85853380	      0.98936425	     -0.09877935	     27.14826310	      3.07096638	      1.53904911	      0.25652700	      0.00447724	     -5.80094609	    -10.20802614	     -7.49976053	      6.38268787	     -0.88136740	      8.44206944	      9.46446639	      0.16518610	      8.24866952	     -2.17183612	     -7.49976053	      0.82349423	      8.77284479	     -2.77985367	     40.14796070	      4.84414602	     68.40650818	    103.67941454	     92.57410984	     29.56666768	     -0.97615604	     57.98704548	    121.37712682	     95.56714487
      1.58333330	     -7.87193966	     -7.61497123	     -6.95870129	      0.85922273	      0.98804558	     -0.09941247	     26.28539728	      3.13579038	      1.47213960	      0.33555045	      0.00585646	     -6.27544824	    -10.60908816	     -7.49979835	      6.14834765	     -1.13373124	      8.58731066	     10.17978289	      0.17767073	      8.61327430	     -2.19973662	     -7.49979835	      0.58148504	      8.99901920	     -2.84224079	     40.45512754	      4.84891194	     68.03763022	    103.81001025	     90.58375666	     29.91994435	     -0.76051411	     57.24649683	    121.30152173	     93.17819488
      1.60000000	     -7.58095256	     -7.85764726	     -6.67872973	      0.85958118	      0.98899480	     -0.09974039	     25.56388723	      3.12715057	      1.55856866	      0.47158278	      0.00823067	     -6.68117103	    -10.80974963	     -7.49985870	      6.17745828	     -1.27575081	      8.91563987	     10.78778815	      0.18828242	      9.17431228	     -2.37727229	     -7.49985870	      0.40737729	      9.19537852	     -3.13940715	     40.78212690	      4.91373884	     68.20113708	    103.79277385	     93.47130016	     30.02132349	     -0.75273266	     56.91923881	    121.32116368	     96.27452849
